<?xml version="1.0" encoding="UTF-8"?><svg id="a" xmlns="http://www.w3.org/2000/svg" xmlns:xlink="http://www.w3.org/1999/xlink" viewBox="0 0 1253 986"><defs><style>.d{fill:#1c4e87;}.e{fill:none;}.f{clip-path:url(#b);}</style><clipPath id="b"><rect class="e" x="156.12" y="127.28" width="928.79" height="708.46"/></clipPath></defs><g class="f"><path class="d" d="M154.29,127.28c-4.98,22.83-26.9,40.08-53.11,40.08s-48.13-17.25-53.11-40.08h-23.34c5.01,36.53,37.37,64.82,76.44,64.82s71.44-28.29,76.44-64.82h-23.32Z"/><path class="d" d="M285.68,127.28c-4.98,22.83-26.9,40.08-53.11,40.08s-48.13-17.25-53.11-40.08h-23.34c5.01,36.53,37.37,64.82,76.44,64.82s71.44-28.29,76.44-64.82h-23.32Z"/><path class="d" d="M417.06,127.28c-4.98,22.83-26.9,40.08-53.11,40.08s-48.13-17.25-53.11-40.08h-23.34c5.01,36.53,37.37,64.82,76.44,64.82s71.44-28.29,76.44-64.82h-23.32Z"/><path class="d" d="M548.44,127.28c-4.98,22.83-26.9,40.08-53.11,40.08s-48.13-17.25-53.11-40.08h-23.34c5.01,36.53,37.37,64.82,76.44,64.82s71.44-28.29,76.44-64.82h-23.32Z"/><path class="d" d="M679.83,127.28c-4.98,22.83-26.9,40.08-53.11,40.08s-48.13-17.25-53.11-40.08h-23.34c5.01,36.53,37.37,64.82,76.44,64.82s71.44-28.29,76.44-64.82h-23.32Z"/><path class="d" d="M811.21,127.28c-4.98,22.83-26.9,40.08-53.11,40.08s-48.13-17.25-53.11-40.08h-23.34c5.01,36.53,37.37,64.82,76.44,64.82s71.44-28.29,76.44-64.82h-23.32Z"/><path class="d" d="M942.6,127.28c-4.98,22.83-26.9,40.08-53.11,40.08s-48.13-17.25-53.11-40.08h-23.34c5.01,36.53,37.37,64.82,76.44,64.82s71.44-28.29,76.44-64.82h-23.32Z"/><path class="d" d="M1073.98,127.28c-4.98,22.83-26.9,40.08-53.11,40.08s-48.13-17.25-53.11-40.08h-23.34c5.01,36.53,37.37,64.82,76.44,64.82s71.44-28.29,76.44-64.82h-23.32Z"/><path class="d" d="M1205.37,127.28c-4.98,22.83-26.9,40.08-53.11,40.08s-48.13-17.25-53.11-40.08h-23.34c5.01,36.53,37.37,64.82,76.44,64.82s71.44-28.29,76.44-64.82h-23.32Z"/><path class="d" d="M154.29,255.5c-4.98,22.83-26.9,40.08-53.11,40.08s-48.13-17.25-53.11-40.08h-23.34c5.01,36.53,37.37,64.82,76.44,64.82s71.44-28.29,76.44-64.82h-23.32Z"/><path class="d" d="M285.68,255.5c-4.98,22.83-26.9,40.08-53.11,40.08s-48.13-17.25-53.11-40.08h-23.34c5.01,36.53,37.37,64.82,76.44,64.82s71.44-28.29,76.44-64.82h-23.32Z"/><path class="d" d="M417.06,255.5c-4.98,22.83-26.9,40.08-53.11,40.08s-48.13-17.25-53.11-40.08h-23.34c5.01,36.53,37.37,64.82,76.44,64.82s71.44-28.29,76.44-64.82h-23.32Z"/><path class="d" d="M548.44,255.5c-4.98,22.83-26.9,40.08-53.11,40.08s-48.13-17.25-53.11-40.08h-23.34c5.01,36.53,37.37,64.82,76.44,64.82s71.44-28.29,76.44-64.82h-23.32Z"/><path class="d" d="M679.83,255.5c-4.98,22.83-26.9,40.08-53.11,40.08s-48.13-17.25-53.11-40.08h-23.34c5.01,36.53,37.37,64.82,76.44,64.82s71.44-28.29,76.44-64.82h-23.32Z"/><path class="d" d="M811.21,255.5c-4.98,22.83-26.9,40.08-53.11,40.08s-48.13-17.25-53.11-40.08h-23.34c5.01,36.53,37.37,64.82,76.44,64.82s71.44-28.29,76.44-64.82h-23.32Z"/><path class="d" d="M942.6,255.5c-4.98,22.83-26.9,40.08-53.11,40.08s-48.13-17.25-53.11-40.08h-23.34c5.01,36.53,37.37,64.82,76.44,64.82s71.44-28.29,76.44-64.82h-23.32Z"/><path class="d" d="M1073.98,255.5c-4.98,22.83-26.9,40.08-53.11,40.08s-48.13-17.25-53.11-40.08h-23.34c5.01,36.53,37.37,64.82,76.44,64.82s71.44-28.29,76.44-64.82h-23.32Z"/><path class="d" d="M1205.37,255.5c-4.98,22.83-26.9,40.08-53.11,40.08s-48.13-17.25-53.11-40.08h-23.34c5.01,36.53,37.37,64.82,76.44,64.82s71.44-28.29,76.44-64.82h-23.32Z"/><path class="d" d="M154.29,383.72c-4.98,22.83-26.9,40.08-53.11,40.08s-48.13-17.25-53.11-40.08h-23.34c5.01,36.53,37.37,64.82,76.44,64.82s71.44-28.29,76.44-64.82h-23.32Z"/><path class="d" d="M285.68,383.72c-4.98,22.83-26.9,40.08-53.11,40.08s-48.13-17.25-53.11-40.08h-23.34c5.01,36.53,37.37,64.82,76.44,64.82s71.44-28.29,76.44-64.82h-23.32Z"/><path class="d" d="M417.06,383.72c-4.98,22.83-26.9,40.08-53.11,40.08s-48.13-17.25-53.11-40.08h-23.34c5.01,36.53,37.37,64.82,76.44,64.82s71.44-28.29,76.44-64.82h-23.32Z"/><path class="d" d="M548.44,383.72c-4.98,22.83-26.9,40.08-53.11,40.08s-48.13-17.25-53.11-40.08h-23.34c5.01,36.53,37.37,64.82,76.44,64.82s71.44-28.29,76.44-64.82h-23.32Z"/><path class="d" d="M679.83,383.72c-4.98,22.83-26.9,40.08-53.11,40.08s-48.13-17.25-53.11-40.08h-23.34c5.01,36.53,37.37,64.82,76.44,64.82s71.44-28.29,76.44-64.82h-23.32Z"/><path class="d" d="M811.21,383.72c-4.98,22.83-26.9,40.08-53.11,40.08s-48.13-17.25-53.11-40.08h-23.34c5.01,36.53,37.37,64.82,76.44,64.82s71.44-28.29,76.44-64.82h-23.32Z"/><path class="d" d="M942.6,383.72c-4.98,22.83-26.9,40.08-53.11,40.08s-48.13-17.25-53.11-40.08h-23.34c5.01,36.53,37.37,64.82,76.44,64.82s71.44-28.29,76.44-64.82h-23.32Z"/><path class="d" d="M1073.98,383.72c-4.98,22.83-26.9,40.08-53.11,40.08s-48.13-17.25-53.11-40.08h-23.34c5.01,36.53,37.37,64.82,76.44,64.82s71.44-28.29,76.44-64.82h-23.32Z"/><path class="d" d="M1205.37,383.72c-4.98,22.83-26.9,40.08-53.11,40.08s-48.13-17.25-53.11-40.08h-23.34c5.01,36.53,37.37,64.82,76.44,64.82s71.44-28.29,76.44-64.82h-23.32Z"/><path class="d" d="M154.29,511.94c-4.98,22.83-26.9,40.08-53.11,40.08s-48.13-17.25-53.11-40.08h-23.34c5.01,36.53,37.37,64.82,76.44,64.82s71.44-28.29,76.44-64.82h-23.32Z"/><path class="d" d="M285.68,511.94c-4.98,22.83-26.9,40.08-53.11,40.08s-48.13-17.25-53.11-40.08h-23.34c5.01,36.53,37.37,64.82,76.44,64.82s71.44-28.29,76.44-64.82h-23.32Z"/><path class="d" d="M417.06,511.94c-4.98,22.83-26.9,40.08-53.11,40.08s-48.13-17.25-53.11-40.08h-23.34c5.01,36.53,37.37,64.82,76.44,64.82s71.44-28.29,76.44-64.82h-23.32Z"/><path class="d" d="M548.44,511.94c-4.98,22.83-26.9,40.08-53.11,40.08s-48.13-17.25-53.11-40.08h-23.34c5.01,36.53,37.37,64.82,76.44,64.82s71.44-28.29,76.44-64.82h-23.32Z"/><path class="d" d="M679.83,511.94c-4.98,22.83-26.9,40.08-53.11,40.08s-48.13-17.25-53.11-40.08h-23.34c5.01,36.53,37.37,64.82,76.44,64.82s71.44-28.29,76.44-64.82h-23.32Z"/><path class="d" d="M811.21,511.94c-4.98,22.83-26.9,40.08-53.11,40.08s-48.13-17.25-53.11-40.08h-23.34c5.01,36.53,37.37,64.82,76.44,64.82s71.44-28.29,76.44-64.82h-23.32Z"/><path class="d" d="M942.6,511.94c-4.98,22.83-26.9,40.08-53.11,40.08s-48.13-17.25-53.11-40.08h-23.34c5.01,36.53,37.37,64.82,76.44,64.82s71.44-28.29,76.44-64.82h-23.32Z"/><path class="d" d="M1073.98,511.94c-4.98,22.83-26.9,40.08-53.11,40.08s-48.13-17.25-53.11-40.08h-23.34c5.01,36.53,37.37,64.82,76.44,64.82s71.44-28.29,76.44-64.82h-23.32Z"/><path class="d" d="M1205.37,511.94c-4.98,22.83-26.9,40.08-53.11,40.08s-48.13-17.25-53.11-40.08h-23.34c5.01,36.53,37.37,64.82,76.44,64.82s71.44-28.29,76.44-64.82h-23.32Z"/><path class="d" d="M154.29,640.16c-4.98,22.83-26.9,40.08-53.11,40.08s-48.13-17.25-53.11-40.08h-23.34c5.01,36.53,37.37,64.82,76.44,64.82s71.44-28.29,76.44-64.82h-23.32Z"/><path class="d" d="M285.68,640.16c-4.98,22.83-26.9,40.08-53.11,40.08s-48.13-17.25-53.11-40.08h-23.34c5.01,36.53,37.37,64.82,76.44,64.82s71.44-28.29,76.44-64.82h-23.32Z"/><path class="d" d="M417.06,640.16c-4.98,22.83-26.9,40.08-53.11,40.08s-48.13-17.25-53.11-40.08h-23.34c5.01,36.53,37.37,64.82,76.44,64.82s71.44-28.29,76.44-64.82h-23.32Z"/><path class="d" d="M548.44,640.16c-4.98,22.83-26.9,40.08-53.11,40.08s-48.13-17.25-53.11-40.08h-23.34c5.01,36.53,37.37,64.82,76.44,64.82s71.44-28.29,76.44-64.82h-23.32Z"/><path class="d" d="M679.83,640.16c-4.98,22.83-26.9,40.08-53.11,40.08s-48.13-17.25-53.11-40.08h-23.34c5.01,36.53,37.37,64.82,76.44,64.82s71.44-28.29,76.44-64.82h-23.32Z"/><path class="d" d="M811.21,640.16c-4.98,22.83-26.9,40.08-53.11,40.08s-48.13-17.25-53.11-40.08h-23.34c5.01,36.53,37.37,64.82,76.44,64.82s71.44-28.29,76.44-64.82h-23.32Z"/><path class="d" d="M942.6,640.16c-4.98,22.83-26.9,40.08-53.11,40.08s-48.13-17.25-53.11-40.08h-23.34c5.01,36.53,37.37,64.82,76.44,64.82s71.44-28.29,76.44-64.82h-23.32Z"/><path class="d" d="M1073.98,640.16c-4.98,22.83-26.9,40.08-53.11,40.08s-48.13-17.25-53.11-40.08h-23.34c5.01,36.53,37.37,64.82,76.44,64.82s71.44-28.29,76.44-64.82h-23.32Z"/><path class="d" d="M1205.37,640.16c-4.98,22.83-26.9,40.08-53.11,40.08s-48.13-17.25-53.11-40.08h-23.34c5.01,36.53,37.37,64.82,76.44,64.82s71.44-28.29,76.44-64.82h-23.32Z"/><path class="d" d="M154.29,768.37c-4.98,22.83-26.9,40.08-53.11,40.08s-48.13-17.25-53.11-40.08h-23.34c5.01,36.53,37.37,64.82,76.44,64.82s71.44-28.29,76.44-64.82h-23.32Z"/><path class="d" d="M285.68,768.37c-4.98,22.83-26.9,40.08-53.11,40.08s-48.13-17.25-53.11-40.08h-23.34c5.01,36.53,37.37,64.82,76.44,64.82s71.44-28.29,76.44-64.82h-23.32Z"/><path class="d" d="M417.06,768.37c-4.98,22.83-26.9,40.08-53.11,40.08s-48.13-17.25-53.11-40.08h-23.34c5.01,36.53,37.37,64.82,76.44,64.82s71.44-28.29,76.44-64.82h-23.32Z"/><path class="d" d="M548.44,768.37c-4.98,22.83-26.9,40.08-53.11,40.08s-48.13-17.25-53.11-40.08h-23.34c5.01,36.53,37.37,64.82,76.44,64.82s71.44-28.29,76.44-64.82h-23.32Z"/><path class="d" d="M679.83,768.37c-4.98,22.83-26.9,40.08-53.11,40.08s-48.13-17.25-53.11-40.08h-23.34c5.01,36.53,37.37,64.82,76.44,64.82s71.44-28.29,76.44-64.82h-23.32Z"/><path class="d" d="M811.21,768.37c-4.98,22.83-26.9,40.08-53.11,40.08s-48.13-17.25-53.11-40.08h-23.34c5.01,36.53,37.37,64.82,76.44,64.82s71.44-28.29,76.44-64.82h-23.32Z"/><path class="d" d="M942.6,768.37c-4.98,22.83-26.9,40.08-53.11,40.08s-48.13-17.25-53.11-40.08h-23.34c5.01,36.53,37.37,64.82,76.44,64.82s71.44-28.29,76.44-64.82h-23.32Z"/><path class="d" d="M1073.98,768.37c-4.98,22.83-26.9,40.08-53.11,40.08s-48.13-17.25-53.11-40.08h-23.34c5.01,36.53,37.37,64.82,76.44,64.82s71.44-28.29,76.44-64.82h-23.32Z"/><path class="d" d="M1205.37,768.37c-4.98,22.83-26.9,40.08-53.11,40.08s-48.13-17.25-53.11-40.08h-23.34c5.01,36.53,37.37,64.82,76.44,64.82s71.44-28.29,76.44-64.82h-23.32Z"/></g></svg>