<?xml version="1.0" encoding="UTF-8"?><svg id="a" xmlns="http://www.w3.org/2000/svg" xmlns:xlink="http://www.w3.org/1999/xlink" viewBox="0 0 53.48 53.48"><defs><style>.j{fill:url(#c);}.k{fill:url(#d);}.l{fill:url(#h);}.m{fill:url(#g);}.n{fill:url(#e);}.o{fill:url(#i);}.p{fill:url(#f);}.q{fill:#0056ff;}.q,.r{stroke:#69a3ff;stroke-miterlimit:10;stroke-width:2px;}.s{fill:url(#b);}.r{fill:none;}</style><linearGradient id="b" x1="7.97" y1="7.95" x2="19.11" y2="19.12" gradientUnits="userSpaceOnUse"><stop offset="0" stop-color="#e9b6b6"/><stop offset=".03" stop-color="#ec9797"/><stop offset=".08" stop-color="#f16f6f"/><stop offset=".13" stop-color="#f54c4c"/><stop offset=".19" stop-color="#f93030"/><stop offset=".25" stop-color="#fb1b1b"/><stop offset=".31" stop-color="#fd0b0b"/><stop offset=".39" stop-color="#fe0202"/><stop offset=".5" stop-color="red"/><stop offset=".55" stop-color="#f80000"/><stop offset=".84" stop-color="#db0202"/><stop offset="1" stop-color="#d10303"/></linearGradient><radialGradient id="c" cx="13.9" cy="13.9" fx="13.9" fy="13.9" r="9.89" gradientUnits="userSpaceOnUse"><stop offset=".66" stop-color="#000"/><stop offset=".68" stop-color="#130000"/><stop offset=".77" stop-color="#650101"/><stop offset=".85" stop-color="#a70202"/><stop offset=".92" stop-color="#d60303"/><stop offset=".97" stop-color="#f40303"/><stop offset="1" stop-color="#ff0404"/></radialGradient><linearGradient id="d" x1="7.97" y1="7.95" x2="19.11" y2="19.12" gradientTransform="translate(0 53.48) rotate(-90)" gradientUnits="userSpaceOnUse"><stop offset="0" stop-color="#e9e9b6"/><stop offset=".03" stop-color="#ecec97"/><stop offset=".08" stop-color="#f1f16f"/><stop offset=".13" stop-color="#f5f54c"/><stop offset=".19" stop-color="#f9f930"/><stop offset=".25" stop-color="#fbfb1b"/><stop offset=".31" stop-color="#fdfd0b"/><stop offset=".39" stop-color="#fefe02"/><stop offset=".5" stop-color="#ff0"/><stop offset=".55" stop-color="#f8f800"/><stop offset=".84" stop-color="#dbdb02"/><stop offset="1" stop-color="#d1d103"/></linearGradient><radialGradient id="e" cx="13.9" cy="39.59" fx="13.9" fy="39.59" r="9.89" gradientUnits="userSpaceOnUse"><stop offset=".66" stop-color="#a67d00"/><stop offset=".68" stop-color="#ad8700"/><stop offset=".83" stop-color="#d6c302"/><stop offset=".94" stop-color="#f0e703"/><stop offset="1" stop-color="#faf604"/></radialGradient><linearGradient id="f" x1="-7.14" y1=".24" x2="3.99" y2="11.42" gradientTransform="translate(38.37 45.78) rotate(-180)" xlink:href="#b"/><radialGradient id="g" cx="39.59" cy="39.59" fx="39.59" fy="39.59" r="9.89" xlink:href="#c"/><linearGradient id="h" x1="15.67" y1="23.06" x2="26.81" y2="34.23" gradientTransform="translate(68.59 -7.7) rotate(90)" xlink:href="#d"/><radialGradient id="i" cx="39.59" cy="13.9" fx="39.59" fy="13.9" xlink:href="#e"/></defs><rect class="q" x="1" y="1" width="51.48" height="51.48" rx="7.96" ry="7.96"/><line class="r" x1=".81" y1="26.74" x2="52.67" y2="26.74"/><line class="r" x1="26.74" y1="1.05" x2="26.74" y2="52.43"/><circle class="s" cx="13.9" cy="13.9" r="7.89"/><path class="j" d="M13.9,6.01c4.36,0,7.89,3.53,7.89,7.89s-3.53,7.89-7.89,7.89-7.89-3.53-7.89-7.89,3.53-7.89,7.89-7.89M13.9,4.01c-5.45,0-9.89,4.44-9.89,9.89s4.44,9.89,9.89,9.89,9.89-4.44,9.89-9.89-4.44-9.89-9.89-9.89h0Z"/><circle class="k" cx="13.9" cy="39.59" r="7.89"/><path class="n" d="M13.9,31.7c4.36,0,7.89,3.53,7.89,7.89s-3.53,7.89-7.89,7.89-7.89-3.53-7.89-7.89,3.53-7.89,7.89-7.89M13.9,29.7c-5.45,0-9.89,4.44-9.89,9.89s4.44,9.89,9.89,9.89,9.89-4.44,9.89-9.89-4.44-9.89-9.89-9.89h0Z"/><path class="p" d="M31.7,39.59c0-4.36,3.53-7.89,7.89-7.89s7.89,3.53,7.89,7.89c0,4.36-3.53,7.89-7.89,7.89s-7.89-3.53-7.89-7.89Z"/><path class="m" d="M39.59,31.7c4.36,0,7.89,3.53,7.89,7.89s-3.53,7.89-7.89,7.89-7.89-3.53-7.89-7.89,3.53-7.89,7.89-7.89M39.59,29.7c-5.45,0-9.89,4.44-9.89,9.89s4.44,9.89,9.89,9.89,9.89-4.44,9.89-9.89-4.44-9.89-9.89-9.89h0Z"/><circle class="l" cx="39.59" cy="13.9" r="7.89"/><path class="o" d="M39.59,6.01c4.36,0,7.89,3.53,7.89,7.89s-3.53,7.89-7.89,7.89-7.89-3.53-7.89-7.89,3.53-7.89,7.89-7.89M39.59,4.01c-5.45,0-9.89,4.44-9.89,9.89s4.44,9.89,9.89,9.89,9.89-4.44,9.89-9.89-4.44-9.89-9.89-9.89h0Z"/></svg>