<?xml version="1.0" encoding="UTF-8"?><svg id="a" xmlns="http://www.w3.org/2000/svg" xmlns:xlink="http://www.w3.org/1999/xlink" viewBox="0 0 128.87 128.87"><defs><style>.e{fill:url(#c);}.f{fill:url(#b);}</style><linearGradient id="b" x1="843.57" y1="-435.25" x2="916.14" y2="-362.43" gradientTransform="translate(946.62 -332.06) rotate(-180)" gradientUnits="userSpaceOnUse"><stop offset="0" stop-color="#e9b6b6"/><stop offset=".03" stop-color="#ec9797"/><stop offset=".08" stop-color="#f16f6f"/><stop offset=".13" stop-color="#f54c4c"/><stop offset=".19" stop-color="#f93030"/><stop offset=".25" stop-color="#fb1b1b"/><stop offset=".31" stop-color="#fd0b0b"/><stop offset=".39" stop-color="#fe0202"/><stop offset=".5" stop-color="red"/><stop offset=".55" stop-color="#f80000"/><stop offset=".84" stop-color="#db0202"/><stop offset="1" stop-color="#d10303"/></linearGradient><radialGradient id="c" cx="64.43" cy="64.43" fx="64.43" fy="64.43" r="64.43" gradientUnits="userSpaceOnUse"><stop offset=".66" stop-color="#000"/><stop offset=".68" stop-color="#130000"/><stop offset=".77" stop-color="#650101"/><stop offset=".85" stop-color="#a70202"/><stop offset=".92" stop-color="#d60303"/><stop offset=".97" stop-color="#f40303"/><stop offset="1" stop-color="#ff0404"/></radialGradient></defs><path class="f" d="M13.03,64.43c0-28.39,23.01-51.4,51.4-51.4,28.39,0,51.4,23.01,51.4,51.4,0,28.39-23.01,51.4-51.4,51.4-28.39,0-51.4-23.01-51.4-51.4Z"/><path class="e" d="M64.43,13.03c28.39,0,51.4,23.01,51.4,51.4s-23.01,51.4-51.4,51.4S13.03,92.82,13.03,64.43,36.05,13.03,64.43,13.03M64.43,0C28.91,0,0,28.91,0,64.43s28.91,64.43,64.43,64.43,64.43-28.91,64.43-64.43S99.96,0,64.43,0h0Z"/></svg>