<?xml version="1.0" encoding="UTF-8"?><svg id="a" xmlns="http://www.w3.org/2000/svg" xmlns:xlink="http://www.w3.org/1999/xlink" viewBox="0 0 1085.62 335.53"><defs><style>.g{fill:#1d61e7;stroke:#1c4e87;stroke-linejoin:round;stroke-width:2px;}.h{fill:#1c4e87;}.i{fill:none;}.j{clip-path:url(#e);}.k{clip-path:url(#c);}</style><clipPath id="c"><polygon class="i" points="944 0 944 0 1085.62 0 1085.62 335.53 944 335.53 944 0"/></clipPath><clipPath id="e"><polygon class="i" points="141.63 0 141.63 0 0 0 0 335.53 141.63 335.53 141.63 0"/></clipPath></defs><g id="b"><g class="k"><path class="h" d="M1041.84,334.53l-97.85-88.37h46.21c9.96,0,18.18-7.82,18.67-17.77l7.19-144.9,28.37,231.83-2.6,19.2Z"/><path class="g" d="M1059.67,268.02h-43.6V65.79c0-4.01,3.25-7.26,7.26-7.26h10.28c4.7,0,8.67-3.51,9.24-8.18l4.85-44.62c.33-2.7,2.63-4.74,5.35-4.74h0c2.98,0,5.39,2.42,5.39,5.39l1.22,261.63Z"/><rect class="g" x="1041.84" y="321.06" width="42.78" height="13.46"/><path class="g" d="M1084.61,321.06h-42.84c-.86-6.7-2.86-16.3-7.88-26.87-5.62-11.85-12.76-20.11-17.83-25.13h43.5c4.5,3.43,11.32,9.56,16.77,19.15,7.77,13.68,8.38,26.72,8.27,32.84Z"/><path class="g" d="M965.43,265.54l76.42,68.99v-13.46l-73.97-64.87c-1.19-1.04-3.06-.2-3.06,1.39v6.59c0,.52.22,1.02.61,1.37Z"/></g></g><g id="d"><g class="j"><path class="h" d="M43.78,334.53l97.85-88.37h-46.21c-9.96,0-18.18-7.82-18.67-17.77l-7.19-144.9-28.37,231.83,2.6,19.2Z"/><path class="g" d="M25.95,268.02h43.6V65.79c0-4.01-3.25-7.26-7.26-7.26h-10.28c-4.7,0-8.67-3.51-9.24-8.18l-4.85-44.62c-.33-2.7-2.63-4.74-5.35-4.74h0c-2.98,0-5.39,2.42-5.39,5.39l-1.22,261.63Z"/><rect class="g" x="1" y="321.06" width="42.78" height="13.46" transform="translate(44.78 655.59) rotate(180)"/><path class="g" d="M1.01,321.06h42.84c.86-6.7,2.86-16.3,7.88-26.87,5.62-11.85,12.76-20.11,17.83-25.13H26.06c-4.5,3.43-11.32,9.56-16.77,19.15-7.77,13.68-8.38,26.72-8.27,32.84Z"/><path class="g" d="M120.2,265.54l-76.42,68.99v-13.46l73.97-64.87c1.19-1.04,3.06-.2,3.06,1.39v6.59c0,.52-.22,1.02-.61,1.37Z"/></g></g></svg>